<?xml version="1.0" encoding="UTF-8" standalone="no"?>
<svg
   xmlns:dc="http://purl.org/dc/elements/1.1/"
   xmlns:cc="http://creativecommons.org/ns#"
   xmlns:rdf="http://www.w3.org/1999/02/22-rdf-syntax-ns#"
   xmlns:svg="http://www.w3.org/2000/svg"
   xmlns="http://www.w3.org/2000/svg"
   xmlns:sodipodi="http://sodipodi.sourceforge.net/DTD/sodipodi-0.dtd"
   xmlns:inkscape="http://www.inkscape.org/namespaces/inkscape"
   width="3.016cm"
   height="2.861cm"
   viewBox="0 0 85.496 81.097"
   version="1.1"
   id="svg3733"
   sodipodi:docname="inbox.svg"
   inkscape:version="0.92.4 (5da689c313, 2019-01-14)">
  <metadata
     id="metadata3739">
    <rdf:RDF>
      <cc:Work
         rdf:about="">
        <dc:format>image/svg+xml</dc:format>
        <dc:type
           rdf:resource="http://purl.org/dc/dcmitype/StillImage" />
      </cc:Work>
    </rdf:RDF>
  </metadata>
  <defs
     id="defs3737" />
  <sodipodi:namedview
     pagecolor="#ffffff"
     bordercolor="#666666"
     borderopacity="1"
     objecttolerance="10"
     gridtolerance="10"
     guidetolerance="10"
     inkscape:pageopacity="0"
     inkscape:pageshadow="2"
     inkscape:window-width="713"
     inkscape:window-height="513"
     id="namedview3735"
     showgrid="false"
     inkscape:zoom="2.1825119"
     inkscape:cx="56.995276"
     inkscape:cy="54.066143"
     inkscape:window-x="1170"
     inkscape:window-y="522"
     inkscape:window-maximized="0"
     inkscape:current-layer="svg3733" />
  <title
     id="title3729">Inbox</title>
  <path
     d="m 84.231914,28.324975 a 0.86015484,0.86015484 0 0 0 -0.196413,-0.474101 c -0.01806,-0.02258 -0.02258,-0.05193 -0.04064,-0.0745 l -0.02032,-0.0158 A 1.1107511,1.1107511 0 0 0 83.68105,27.534811 c -0.01806,0 -0.03161,-0.02483 -0.04967,-0.03386 a 1.1152664,1.1152664 0 0 0 -0.343159,-0.09708 c -0.02709,0 -0.05192,-0.01355 -0.07676,-0.0158 -0.02483,-0.0023 -0.05192,-0.0158 -0.07902,-0.0158 H 64.762163 l 0.41766,-0.377023 A 3.3299958,3.3299958 0 0 0 62.944775,21.199913 H 52.936727 V 5.8774176 A 5.2963865,5.2963865 0 0 0 47.644856,0.58554626 H 38.192183 A 5.2963865,5.2963865 0 0 0 32.900312,5.8774176 V 21.186368 H 23.55149 a 3.3299958,3.3299958 0 0 0 -2.237307,5.79532 l 0.417661,0.377024 H 3.3705855 c -0.029349,0 -0.051925,0.01355 -0.081274,0.0158 -0.029349,0.0023 -0.072244,0.0158 -0.108366,0.02258 a 1.1130088,1.1130088 0 0 0 -0.3047793,0.08805 1.1288121,1.1288121 0 0 0 -0.1083659,0.07224 1.1130088,1.1130088 0 0 0 -0.2257624,0.185125 c 0,0.01129 -0.027092,0.0158 -0.036122,0.02935 a 1.0701139,1.0701139 0 0 0 -0.074502,0.135457 0.87821583,0.87821583 0 0 0 -0.1670642,0.496678 c 0,0.02935 -0.015803,0.05418 -0.015803,0.08353 v 0.07224 c 0,0.0158 0,0.03161 0,0.04741 V 67.749867 A 12.432737,12.432737 0 0 0 14.66548,80.1668 H 71.851103 A 12.432737,12.432737 0 0 0 84.268036,67.749867 V 28.492039 a 1.0610834,1.0610834 0 0 0 -0.03612,-0.167064 z M 22.553619,24.130309 a 1.0475377,1.0475377 0 0 1 1.000128,-0.677287 H 34.031382 A 1.1288121,1.1288121 0 0 0 35.160194,22.32421 V 5.8774176 a 3.0387622,3.0387622 0 0 1 3.034247,-3.034247 h 9.45493 a 3.0387622,3.0387622 0 0 1 3.034247,3.034247 V 22.315179 a 1.1288121,1.1288121 0 0 0 1.128812,1.128812 h 11.13686 a 1.0723715,1.0723715 0 0 1 0.717925,1.864798 l -2.587237,2.345671 c -0.02483,0.02258 -0.05193,0.0429 -0.0745,0.06773 L 44.680595,42.525431 a 2.1357125,2.1357125 0 0 1 -2.864925,0 L 22.824534,25.311046 a 1.04528,1.04528 0 0 1 -0.270915,-1.180737 z m 17.744927,20.063507 a 4.3730182,4.3730182 0 0 0 5.899173,0 L 62.274261,29.618593 H 80.062082 L 45.527204,58.780326 a 3.5241514,3.5241514 0 0 1 -4.558143,0 L 6.4274087,29.614078 H 24.215231 Z m -0.78791,16.31585 a 5.7682299,5.7682299 0 0 0 7.472736,0 l 10.470861,-8.843114 8.786674,26.242624 H 20.359208 L 29.123306,51.736538 Z M 4.4993976,67.749867 V 30.939304 L 27.267539,50.167489 17.977415,77.909176 H 14.658707 A 10.159309,10.159309 0 0 1 4.4993976,67.749867 Z M 71.84433,77.909176 H 68.6227 L 59.31,50.099761 82.003639,30.934788 V 67.749867 A 10.159309,10.159309 0 0 1 71.84433,77.909176 Z"
     id="path3731"
     style="fill:#ffffff;stroke-width:2.25762415"
     inkscape:connector-curvature="0" />
</svg>
