<?xml version="1.0" encoding="UTF-8" standalone="no"?>
<svg
   xmlns:dc="http://purl.org/dc/elements/1.1/"
   xmlns:cc="http://creativecommons.org/ns#"
   xmlns:rdf="http://www.w3.org/1999/02/22-rdf-syntax-ns#"
   xmlns:svg="http://www.w3.org/2000/svg"
   xmlns="http://www.w3.org/2000/svg"
   xmlns:sodipodi="http://sodipodi.sourceforge.net/DTD/sodipodi-0.dtd"
   xmlns:inkscape="http://www.inkscape.org/namespaces/inkscape"
   width="3.016cm"
   height="2.861cm"
   viewBox="0 0 85.496 81.097"
   version="1.1"
   id="svg3781"
   sodipodi:docname="my-advert.svg"
   inkscape:version="0.92.4 (5da689c313, 2019-01-14)">
  <metadata
     id="metadata3787">
    <rdf:RDF>
      <cc:Work
         rdf:about="">
        <dc:format>image/svg+xml</dc:format>
        <dc:type
           rdf:resource="http://purl.org/dc/dcmitype/StillImage" />
      </cc:Work>
    </rdf:RDF>
  </metadata>
  <defs
     id="defs3785" />
  <sodipodi:namedview
     pagecolor="#ffffff"
     bordercolor="#666666"
     borderopacity="1"
     objecttolerance="10"
     gridtolerance="10"
     guidetolerance="10"
     inkscape:pageopacity="0"
     inkscape:pageshadow="2"
     inkscape:window-width="713"
     inkscape:window-height="513"
     id="namedview3783"
     showgrid="false"
     inkscape:zoom="2.1825119"
     inkscape:cx="56.995276"
     inkscape:cy="54.066143"
     inkscape:window-x="910"
     inkscape:window-y="522"
     inkscape:window-maximized="0"
     inkscape:current-layer="svg3781" />
  <title
     id="title3765">Mty Advert</title>
  <g
     id="g3779"
     style="fill:#ffffff"
     transform="matrix(2.0115144,0,0,2.0115144,-43.599212,-40.841178)">
    <path
       d="m 55.143,30.891 h -1.2 a 0.5,0.5 0 0 0 0,1 h 0.7 v 27.53 h -20.66 v -2.03 h 18.04 a 0.5,0.5 0 0 0 0.5,-0.5 v -28.53 a 0.5,0.5 0 0 0 -0.5,-0.5 h -3.532 l 1.524,-3.216 0.543,0.343 a 0.5,0.5 0 1 0 0.533,-0.846 l -5.379,-3.39 a 0.5,0.5 0 1 0 -0.533,0.846 l 0.7,0.438 -4.4,5.372 -1.481,-0.934 a 0.5,0.5 0 1 0 -0.533,0.846 l 0.858,0.541 H 35.9 c -0.014,0 -0.027,0.006 -0.041,0.007 a 0.452,0.452 0 0 0 -0.055,0.01 0.492,0.492 0 0 0 -0.222,0.1 v 0 l -5.55,4.66 a 0.489,0.489 0 0 0 -0.144,0.226 0.453,0.453 0 0 0 -0.016,0.071 0.486,0.486 0 0 0 -0.019,0.086 v 23.87 a 0.5,0.5 0 0 0 0.5,0.5 h 2.63 v 2.53 a 0.5,0.5 0 0 0 0.5,0.5 h 21.66 a 0.5,0.5 0 0 0 0.5,-0.5 v -28.53 a 0.5,0.5 0 0 0 -0.5,-0.5 z m -8.416,-8.317 2.436,1.535 -2.973,6.273 -2,-1.257 v 0 L 42.32,27.947 Z M 32.268,32.065 35.4,29.434 v 3.087 h -3.674 z m -1.416,1.456 H 35.9 a 0.5,0.5 0 0 0 0.5,-0.5 v -4.16 h 5.5 l 1.337,0.843 -2.292,3.637 a 0.5,0.5 0 1 0 0.846,0.533 l 2.292,-3.637 3.781,2.383 a 0.5,0.5 0 0 0 0.533,-0.846 l -1.356,-0.855 0.975,-2.058 h 3.506 v 27.53 H 30.853 Z"
       id="path3767"
       style="fill:#ffffff"
       inkscape:connector-curvature="0" />
    <path
       d="m 39.085,37.558 h 7.686 a 0.5,0.5 0 0 0 0,-1 h -7.686 a 0.5,0.5 0 1 0 0,1 z"
       id="path3769"
       style="fill:#ffffff"
       inkscape:connector-curvature="0" />
    <path
       d="m 35.6,40.974 h 11.171 a 0.5,0.5 0 0 0 0,-1 H 35.6 a 0.5,0.5 0 0 0 0,1 z"
       id="path3771"
       style="fill:#ffffff"
       inkscape:connector-curvature="0" />
    <path
       d="m 35.6,44.448 h 11.171 a 0.5,0.5 0 0 0 0,-1 H 35.6 a 0.5,0.5 0 0 0 0,1 z"
       id="path3773"
       style="fill:#ffffff"
       inkscape:connector-curvature="0" />
    <path
       d="m 35.6,47.865 h 11.171 a 0.5,0.5 0 0 0 0,-1 H 35.6 a 0.5,0.5 0 0 0 0,1 z"
       id="path3775"
       style="fill:#ffffff"
       inkscape:connector-curvature="0" />
    <path
       d="m 35.6,51.281 h 11.171 a 0.5,0.5 0 0 0 0,-1 H 35.6 a 0.5,0.5 0 0 0 0,1 z"
       id="path3777"
       style="fill:#ffffff"
       inkscape:connector-curvature="0" />
  </g>
</svg>
