<?xml version="1.0" encoding="UTF-8" standalone="no"?>
<svg
   xmlns:dc="http://purl.org/dc/elements/1.1/"
   xmlns:cc="http://creativecommons.org/ns#"
   xmlns:rdf="http://www.w3.org/1999/02/22-rdf-syntax-ns#"
   xmlns:svg="http://www.w3.org/2000/svg"
   xmlns="http://www.w3.org/2000/svg"
   xmlns:sodipodi="http://sodipodi.sourceforge.net/DTD/sodipodi-0.dtd"
   xmlns:inkscape="http://www.inkscape.org/namespaces/inkscape"
   width="3.016cm"
   height="2.861cm"
   viewBox="0 0 85.496 81.097"
   version="1.1"
   id="svg3805"
   sodipodi:docname="notification.svg"
   inkscape:version="0.92.4 (5da689c313, 2019-01-14)">
  <metadata
     id="metadata3811">
    <rdf:RDF>
      <cc:Work
         rdf:about="">
        <dc:format>image/svg+xml</dc:format>
        <dc:type
           rdf:resource="http://purl.org/dc/dcmitype/StillImage" />
      </cc:Work>
    </rdf:RDF>
  </metadata>
  <defs
     id="defs3809" />
  <sodipodi:namedview
     pagecolor="#ffffff"
     bordercolor="#666666"
     borderopacity="1"
     objecttolerance="10"
     gridtolerance="10"
     guidetolerance="10"
     inkscape:pageopacity="0"
     inkscape:pageshadow="2"
     inkscape:window-width="713"
     inkscape:window-height="513"
     id="namedview3807"
     showgrid="false"
     inkscape:zoom="2.1825119"
     inkscape:cx="56.995276"
     inkscape:cy="54.066143"
     inkscape:window-x="0"
     inkscape:window-y="0"
     inkscape:window-maximized="0"
     inkscape:current-layer="svg3805" />
  <title
     id="title3801">Notification</title>
  <path
     d="m 73.239231,58.339715 a 59.960819,59.960819 0 0 1 -7.5503,-26.879067 23.33729,23.33729 0 0 0 -12.29326,-20.669517 11.002846,11.002846 0 0 0 -21.900445,0.01144 23.33729,23.33729 0 0 0 -12.277245,20.655789 59.812101,59.812101 0 0 1 -7.525132,26.881355 7.7790966,7.7790966 0 0 0 -0.0183,7.868327 7.9323906,7.9323906 0 0 0 6.953139,4.038266 h 8.673693 a 16.73421,16.73421 0 0 0 30.624474,0 h 8.37168 a 7.9369665,7.9369665 0 0 0 6.9417,-4.035978 7.7790966,7.7790966 0 0 0 0,-7.870615 z M 42.4546,3.1424486 a 8.6942844,8.6942844 0 0 1 8.465488,6.4955457 23.730821,23.730821 0 0 0 -8.154324,-1.661066 v 0.016016 a 1.4459968,1.4459968 0 0 0 -0.28142,-0.029744 l -0.285996,-0.013728 a 1.0982254,1.0982254 0 0 0 -0.272269,0.03432 23.698789,23.698789 0 0 0 -7.92095,1.6610659 A 8.6942844,8.6942844 0 0 1 42.4546,3.1424486 Z M 42.61247,77.931598 A 14.60411,14.60411 0 0 1 29.831872,70.237156 H 55.393068 A 14.60411,14.60411 0 0 1 42.61247,77.94075 Z M 71.264713,65.061769 a 5.6695886,5.6695886 0 0 1 -4.967182,2.887418 H 57.23946 c -0.03661,0 -0.07093,0 -0.107535,0 H 18.625397 a 5.6695886,5.6695886 0 0 1 -4.967182,-2.887418 5.491127,5.491127 0 0 1 0,-5.575782 61.173443,61.173443 0 0 0 7.847735,-28.036779 21.04932,21.04932 0 0 1 11.469592,-18.841429 h 0.01144 a 21.310149,21.310149 0 0 1 9.222806,-2.338305 1.1439848,1.1439848 0 0 0 0.164733,-0.01602 h 0.06406 0.08465 a 1.2286397,1.2286397 0 0 0 0.171598,0.0183 21.079064,21.079064 0 0 1 20.706125,21.186598 61.171155,61.171155 0 0 0 7.845448,28.036779 5.491127,5.491127 0 0 1 0.0183,5.575782 z"
     id="path3803"
     style="fill:#ffffff;stroke-width:2.28796959"
     inkscape:connector-curvature="0" />
</svg>
