<?xml version="1.0" encoding="UTF-8" standalone="no"?>
<svg
   xmlns:dc="http://purl.org/dc/elements/1.1/"
   xmlns:cc="http://creativecommons.org/ns#"
   xmlns:rdf="http://www.w3.org/1999/02/22-rdf-syntax-ns#"
   xmlns:svg="http://www.w3.org/2000/svg"
   xmlns="http://www.w3.org/2000/svg"
   xmlns:sodipodi="http://sodipodi.sourceforge.net/DTD/sodipodi-0.dtd"
   xmlns:inkscape="http://www.inkscape.org/namespaces/inkscape"
   width="3.016cm"
   height="2.861cm"
   viewBox="0 0 85.496 81.097"
   version="1.1"
   id="svg3841"
   sodipodi:docname="post-advert.svg"
   inkscape:version="0.92.4 (5da689c313, 2019-01-14)">
  <metadata
     id="metadata3847">
    <rdf:RDF>
      <cc:Work
         rdf:about="">
        <dc:format>image/svg+xml</dc:format>
        <dc:type
           rdf:resource="http://purl.org/dc/dcmitype/StillImage" />
      </cc:Work>
    </rdf:RDF>
  </metadata>
  <defs
     id="defs3845" />
  <sodipodi:namedview
     pagecolor="#ffffff"
     bordercolor="#666666"
     borderopacity="1"
     objecttolerance="10"
     gridtolerance="10"
     guidetolerance="10"
     inkscape:pageopacity="0"
     inkscape:pageshadow="2"
     inkscape:window-width="713"
     inkscape:window-height="513"
     id="namedview3843"
     showgrid="false"
     inkscape:zoom="2.1825119"
     inkscape:cx="56.995276"
     inkscape:cy="54.066143"
     inkscape:window-x="0"
     inkscape:window-y="0"
     inkscape:window-maximized="0"
     inkscape:current-layer="svg3841" />
  <title
     id="title3831">Post Advert</title>
  <g
     id="g3839"
     style="fill:#ffffff"
     transform="matrix(2.0587897,0,0,2.0587897,-45.258734,-42.931484)">
    <path
       d="M 59.128,37.364 H 47.454 V 31.77 H 51.6 a 1.475,1.475 0 0 0 0.99,-2.567 L 44.182,21.58 a 1.938,1.938 0 0 0 -2.613,0 l -8.413,7.62 a 1.475,1.475 0 0 0 0.991,2.567 h 4.432 v 5.595 h -5.288 v -0.7 a 1.356,1.356 0 0 0 -1.354,-1.354 h -2.708 a 1.356,1.356 0 0 0 -1.354,1.354 v 0.7 h -1.507 a 0.5,0.5 0 0 0 -0.5,0.5 v 21.66 a 0.5,0.5 0 0 0 0.5,0.5 h 32.76 a 0.5,0.5 0 0 0 0.5,-0.5 V 37.864 a 0.5,0.5 0 0 0 -0.5,-0.5 z M 34.147,30.77 a 0.475,0.475 0 0 1 -0.319,-0.826 l 8.408,-7.624 a 0.94,0.94 0 0 1 1.269,0 l 8.408,7.624 a 0.475,0.475 0 0 1 -0.318,0.826 h -4.641 a 0.5,0.5 0 0 0 -0.5,0.5 v 7.281 A 1.345,1.345 0 0 1 45.11,39.895 H 40.923 A 1.345,1.345 0 0 1 39.579,38.551 V 31.27 a 0.5,0.5 0 0 0 -0.5,-0.5 z m -5.272,5.9 a 0.355,0.355 0 0 1 0.354,-0.354 h 2.708 a 0.355,0.355 0 0 1 0.354,0.354 v 0.7 h -3.417 z m -0.5,1.7 h 10.2 v 0.187 a 2.347,2.347 0 0 0 2.344,2.344 h 4.191 a 2.347,2.347 0 0 0 2.344,-2.344 V 38.37 h 11.174 v 5.99 H 47.57 a 7.163,7.163 0 0 0 -9.662,0 h -11.04 v -5.99 z m 9.75,7.19 c 0.1,-0.116 0.214,-0.224 0.325,-0.331 a 0.479,0.479 0 0 0 0.04,-0.041 6.13,6.13 0 0 1 3.893,-1.693 c 0.123,-0.007 0.246,-0.011 0.367,-0.011 a 6.182,6.182 0 1 1 -4.625,2.075 z M 26.868,59.024 V 45.355 H 37 a 7.178,7.178 0 0 0 5.739,11.49 c 0.141,0 0.284,0 0.426,-0.013 A 7.172,7.172 0 0 0 48.48,45.354 h 10.148 v 13.67 z"
       id="path3833"
       style="fill:#ffffff"
       inkscape:connector-curvature="0" />
    <path
       d="m 42.743,54.678 c 0.1,0 0.2,0 0.3,-0.009 a 5.014,5.014 0 1 0 -0.3,0.009 z m -3,-7.684 a 3.992,3.992 0 0 1 2.765,-1.341 c 0.08,0 0.159,-0.007 0.238,-0.007 a 4.015,4.015 0 1 1 -3,1.348 z"
       id="path3835"
       style="fill:#ffffff"
       inkscape:connector-curvature="0" />
    <path
       d="M 51.624,43.48 H 56.5 a 0.5,0.5 0 0 0 0.5,-0.5 v -3 a 0.5,0.5 0 0 0 -0.5,-0.5 h -4.876 a 0.5,0.5 0 0 0 -0.5,0.5 v 3 a 0.5,0.5 0 0 0 0.5,0.5 z m 0.5,-3 H 56 v 2 h -3.876 z"
       id="path3837"
       style="fill:#ffffff"
       inkscape:connector-curvature="0" />
  </g>
</svg>
