<?xml version="1.0" encoding="UTF-8" standalone="no"?>
<svg
   xmlns:dc="http://purl.org/dc/elements/1.1/"
   xmlns:cc="http://creativecommons.org/ns#"
   xmlns:rdf="http://www.w3.org/1999/02/22-rdf-syntax-ns#"
   xmlns:svg="http://www.w3.org/2000/svg"
   xmlns="http://www.w3.org/2000/svg"
   xmlns:sodipodi="http://sodipodi.sourceforge.net/DTD/sodipodi-0.dtd"
   xmlns:inkscape="http://www.inkscape.org/namespaces/inkscape"
   width="2.164cm"
   height="2.093cm"
   viewBox="0 0 61.333 59.333"
   version="1.1"
   id="svg10"
   sodipodi:docname="question.svg"
   inkscape:version="0.92.4 (5da689c313, 2019-01-14)">
  <metadata
     id="metadata16">
    <rdf:RDF>
      <cc:Work
         rdf:about="">
        <dc:format>image/svg+xml</dc:format>
        <dc:type
           rdf:resource="http://purl.org/dc/dcmitype/StillImage" />
      </cc:Work>
    </rdf:RDF>
  </metadata>
  <defs
     id="defs14" />
  <sodipodi:namedview
     pagecolor="#ffffff"
     bordercolor="#666666"
     borderopacity="1"
     objecttolerance="10"
     gridtolerance="10"
     guidetolerance="10"
     inkscape:pageopacity="0"
     inkscape:pageshadow="2"
     inkscape:window-width="3840"
     inkscape:window-height="2035"
     id="namedview12"
     showgrid="false"
     inkscape:zoom="2.9833573"
     inkscape:cx="40.894489"
     inkscape:cy="39.552755"
     inkscape:window-x="3827"
     inkscape:window-y="-13"
     inkscape:window-maximized="1"
     inkscape:current-layer="svg10" />
  <title
     id="title2">Question Mark</title>
  <g
     id="g8"
     style="fill:#ffffff"
     transform="matrix(1.4164361,0,0,1.4164361,-12.732655,-12.354617)">
    <path
       d="m 31.057,9.141 h -0.43 a 12.858,12.858 0 0 0 -12.843,12.843 2.787,2.787 0 0 0 5.573,0 7.278,7.278 0 0 1 7.27,-7.269 h 0.43 a 6.927,6.927 0 0 1 6.919,6.918 5.149,5.149 0 0 1 -2,4.054 l -4.216,3.244 a 10.012,10.012 0 0 0 -3.88,7.889 v 2.942 a 2.787,2.787 0 1 0 5.573,0 V 36.82 a 4.408,4.408 0 0 1 1.709,-3.471 L 39.378,30.1 A 10.754,10.754 0 0 0 43.549,21.629 12.507,12.507 0 0 0 31.057,9.141 Z m 7.626,20.059 -4.216,3.244 a 5.554,5.554 0 0 0 -2.155,4.376 v 2.942 a 1.6455,1.6455 0 1 1 -3.291,0 V 36.82 a 8.865,8.865 0 0 1 3.439,-6.984 l 4.216,-3.244 a 6.3,6.3 0 0 0 2.441,-4.959 8.069,8.069 0 0 0 -8.061,-8.06 h -0.43 a 8.42,8.42 0 0 0 -8.411,8.411 1.6455,1.6455 0 0 1 -3.291,0 11.715,11.715 0 0 1 11.7,-11.7 h 0.43 A 11.364,11.364 0 0 1 42.408,21.633 9.609,9.609 0 0 1 38.683,29.2 Z"
       id="path4"
       style="fill:#ffffff"
       inkscape:connector-curvature="0" />
    <path
       d="m 30.667,44.62 a 2.787,2.787 0 1 0 2.787,2.787 2.79,2.79 0 0 0 -2.787,-2.787 z m 0,4.432 a 1.645,1.645 0 1 1 1.645,-1.645 1.647,1.647 0 0 1 -1.645,1.645 z"
       id="path6"
       style="fill:#ffffff"
       inkscape:connector-curvature="0" />
  </g>
</svg>
